<svg width="223" height="131" viewBox="0 0 223 131" fill="none" xmlns="http://www.w3.org/2000/svg">
<path d="M103.199 131H34.7012V113.292H103.199V131ZM110.813 16.1221H142V47.8994H133.947V55.8145H125.895V64.0215H109.813V55.8145H103.199V64.0215H94.707V72.6689H86.3613V81.0225H78.4551V96.877H86.3613V106.231H50.9531V96.877H59.1523V81.0225H50.9531V72.6689H42.6074V64.0215H34.5547V55.8145H27.209V64.0215H15.96V55.8145H8.05273V47.7529H0V15.9756H26.209V0H110.813V16.1221ZM8 25V47.4707H14.6143V55H28V25H8ZM110 55H125.342V47.4707H133V25H110V55Z" fill="#D9D9D9"/>
<path d="M222.5 66.9531H213.53V59.6152H207.271V67.2412H199.443V82.4932H191.474V90.4062H183.646V95.0107H156.743V86.665H148.916V78.8955H140.949V86.665H133.122V95.0107H124.867V103.5H107.5V94.0107H115.47V85.665H123.867V77.8955H132.122V69.2627H157.743V77.8955H165.855V85.665H174.961V81.4932H182.646V74.1543H190.474V66.2412H198.443V58.6152H206.271V51.9893H198.443V42.5H222.5V66.9531Z" fill="#D9D9D9"/>
</svg>
