<svg width="314" height="83" viewBox="0 0 314 83" fill="none" xmlns="http://www.w3.org/2000/svg">
<path d="M0.523438 0.81818H14.1598V14.4545H0.523438V0.81818ZM14.1598 0.81818H27.7962V14.4545H14.1598V0.81818ZM27.7962 0.81818H41.4325V14.4545H27.7962V0.81818ZM14.1598 14.4545H27.7962V28.0909H14.1598V14.4545ZM14.1598 28.0909H27.7962V41.7273H14.1598V28.0909ZM14.1598 41.7273H27.7962V55.3636H14.1598V41.7273ZM14.1598 55.3636H27.7962V69H14.1598V55.3636ZM55.0156 0.81818H68.652V14.4545H55.0156V0.81818ZM55.0156 14.4545H68.652V28.0909H55.0156V14.4545ZM55.0156 28.0909H68.652V41.7273H55.0156V28.0909ZM55.0156 41.7273H68.652V55.3636H55.0156V41.7273ZM55.0156 55.3636H68.652V69H55.0156V55.3636ZM68.652 14.4545H82.2884V28.0909H68.652V14.4545ZM82.2884 28.0909H95.9247V41.7273H82.2884V28.0909ZM82.2884 41.7273H95.9247V55.3636H82.2884V41.7273ZM82.2884 55.3636H95.9247V69H82.2884V55.3636ZM109.508 55.3636H123.144V69H109.508V55.3636ZM109.508 41.7273H123.144V55.3636H109.508V41.7273ZM109.508 28.0909H123.144V41.7273H109.508V28.0909ZM109.508 0.81818H123.144V14.4545H109.508V0.81818ZM136.754 55.3636H150.39V69H136.754V55.3636ZM136.754 41.7273H150.39V55.3636H136.754V41.7273ZM136.754 28.0909H150.39V41.7273H136.754V28.0909ZM136.754 14.4545H150.39V28.0909H136.754V14.4545ZM150.39 14.4545H164.027V28.0909H150.39V14.4545ZM164.027 28.0909H177.663V41.7273H164.027V28.0909ZM164.027 41.7273H177.663V55.3636H164.027V41.7273ZM164.027 55.3636H177.663V69H164.027V55.3636ZM191.246 0.81818H204.882V14.4545H191.246V0.81818ZM191.246 14.4545H204.882V28.0909H191.246V14.4545ZM191.246 28.0909H204.882V41.7273H191.246V28.0909ZM191.246 41.7273H204.882V55.3636H191.246V41.7273ZM191.246 55.3636H204.882V69H191.246V55.3636ZM204.882 28.0909H218.519V41.7273H204.882V28.0909ZM218.519 14.4545H232.155V28.0909H218.519V14.4545ZM218.519 41.7273H232.155V55.3636H218.519V41.7273ZM218.519 55.3636H232.155V69H218.519V55.3636ZM245.738 0.81818H259.375V14.4545H245.738V0.81818ZM245.738 14.4545H259.375V28.0909H245.738V14.4545ZM245.738 28.0909H259.375V41.7273H245.738V28.0909ZM245.738 41.7273H259.375V55.3636H245.738V41.7273ZM245.738 55.3636H259.375V69H245.738V55.3636ZM286.621 14.4545H300.257V28.0909H286.621V14.4545ZM300.257 28.0909H313.893V41.7273H300.257V28.0909ZM272.984 28.0909H286.621V41.7273H272.984V28.0909ZM300.257 41.7273H313.893V55.3636H300.257V41.7273ZM286.621 41.7273H300.257V55.3636H286.621V41.7273ZM272.984 41.7273H286.621V55.3636H272.984V41.7273ZM272.984 55.3636H286.621V69H272.984V55.3636ZM286.621 69H300.257V82.6364H286.621V69Z" fill="white"/>
</svg>
