<svg width="620" height="899" viewBox="0 0 620 899" fill="none" xmlns="http://www.w3.org/2000/svg">
<rect x="279" y="775" width="31" height="31" fill="#F9771B"/>
<rect x="248" y="775" width="31" height="31" fill="#F9771B"/>
<rect x="217" y="775" width="31" height="31" fill="#F9771B"/>
<rect x="186" y="775" width="31" height="31" fill="#F9771B"/>
<rect x="403" y="775" width="31" height="31" fill="#F9771B"/>
<rect x="372" y="775" width="31" height="31" fill="#F9771B"/>
<rect x="341" y="775" width="31" height="31" fill="#F9771B"/>
<rect x="310" y="775" width="31" height="31" fill="#F9771B"/>
<rect x="279" y="744" width="31" height="31" fill="#F9771B"/>
<rect x="248" y="744" width="31" height="31" fill="#F9771B"/>
<rect x="217" y="744" width="31" height="31" fill="#F9771B"/>
<rect x="186" y="744" width="31" height="31" fill="#F9771B"/>
<rect x="403" y="744" width="31" height="31" fill="#F9771B"/>
<rect x="372" y="744" width="31" height="31" fill="#F9771B"/>
<rect x="341" y="744" width="31" height="31" fill="#F9771B"/>
<rect x="310" y="744" width="31" height="31" fill="#F9771B"/>
<rect x="279" y="713" width="31" height="31" fill="#F9771B"/>
<rect x="248" y="713" width="31" height="31" fill="#F9771B"/>
<rect x="217" y="713" width="31" height="31" fill="#F9771B"/>
<rect x="186" y="713" width="31" height="31" fill="#F9771B"/>
<rect x="403" y="713" width="31" height="31" fill="#F9771B"/>
<rect x="372" y="713" width="31" height="31" fill="#F9771B"/>
<rect x="341" y="713" width="31" height="31" fill="#F9771B"/>
<rect x="310" y="713" width="31" height="31" fill="#F9771B"/>
<rect x="279" y="682" width="31" height="31" fill="#F9771B"/>
<rect x="248" y="682" width="31" height="31" fill="#F9771B"/>
<rect x="217" y="682" width="31" height="31" fill="#F9771B"/>
<rect x="186" y="682" width="31" height="31" fill="#F9771B"/>
<rect x="403" y="682" width="31" height="31" fill="#F9771B"/>
<rect x="372" y="682" width="31" height="31" fill="#F9771B"/>
<rect x="341" y="682" width="31" height="31" fill="#F9771B"/>
<rect x="310" y="682" width="31" height="31" fill="#F9771B"/>
<rect x="279" y="651" width="31" height="31" fill="#F9771B"/>
<rect x="248" y="651" width="31" height="31" fill="#F9771B"/>
<rect x="217" y="651" width="31" height="31" fill="#F9771B"/>
<rect x="186" y="651" width="31" height="31" fill="#F9771B"/>
<rect x="155" y="651" width="31" height="31" fill="#F9771B"/>
<rect x="403" y="651" width="31" height="31" fill="#F9771B"/>
<rect x="434" y="651" width="31" height="31" fill="#F9771B"/>
<rect x="372" y="651" width="31" height="31" fill="#F9771B"/>
<rect x="341" y="651" width="31" height="31" fill="#F9771B"/>
<rect x="310" y="651" width="31" height="31" fill="#F9771B"/>
<rect x="279" y="620" width="31" height="31" fill="#F9771B"/>
<rect x="248" y="620" width="31" height="31" fill="#F9771B"/>
<rect x="217" y="620" width="31" height="31" fill="#F9771B"/>
<rect x="186" y="620" width="31" height="31" fill="#F9771B"/>
<rect x="155" y="620" width="31" height="31" fill="#F9771B"/>
<rect x="403" y="620" width="31" height="31" fill="#F9771B"/>
<rect x="434" y="620" width="31" height="31" fill="#F9771B"/>
<rect x="372" y="620" width="31" height="31" fill="#F9771B"/>
<rect x="341" y="620" width="31" height="31" fill="#F9771B"/>
<rect x="310" y="620" width="31" height="31" fill="#F9771B"/>
<rect x="248" y="589" width="31" height="31" fill="#F9771B"/>
<rect x="217" y="589" width="31" height="31" fill="#F9771B"/>
<rect x="186" y="589" width="31" height="31" fill="#F9771B"/>
<rect x="155" y="589" width="31" height="31" fill="#F9771B"/>
<rect x="124" y="589" width="31" height="31" fill="#F9771B"/>
<rect x="372" y="589" width="31" height="31" fill="#F9771B"/>
<rect x="403" y="589" width="31" height="31" fill="#F9771B"/>
<rect x="434" y="589" width="31" height="31" fill="#F9771B"/>
<rect x="465" y="589" width="31" height="31" fill="#F9771B"/>
<rect x="341" y="589" width="31" height="31" fill="#F9771B"/>
<rect x="310" y="589" width="31" height="31" fill="#F9771B"/>
<rect x="279" y="589" width="31" height="31" fill="#F9771B"/>
<rect x="248" y="558" width="31" height="31" fill="#F9771B"/>
<rect x="217" y="558" width="31" height="31" fill="#F9771B"/>
<rect x="186" y="558" width="31" height="31" fill="#F9771B"/>
<rect x="155" y="558" width="31" height="31" fill="#F9771B"/>
<rect x="124" y="558" width="31" height="31" fill="#F9771B"/>
<rect x="372" y="558" width="31" height="31" fill="#F9771B"/>
<rect x="403" y="558" width="31" height="31" fill="#F9771B"/>
<rect x="434" y="558" width="31" height="31" fill="#F9771B"/>
<rect x="465" y="558" width="31" height="31" fill="#F9771B"/>
<rect x="341" y="558" width="31" height="31" fill="#F9771B"/>
<rect x="403" y="527" width="31" height="31" fill="#F9771B"/>
<rect x="434" y="527" width="31" height="31" fill="#F9771B"/>
<rect x="465" y="527" width="31" height="31" fill="#F9771B"/>
<rect x="496" y="527" width="31" height="31" fill="#F9771B"/>
<rect x="372" y="527" width="31" height="31" fill="#F9771B"/>
<rect x="310" y="558" width="31" height="31" fill="#F9771B"/>
<rect x="279" y="558" width="31" height="31" fill="#F9771B"/>
<rect x="341" y="527" width="31" height="31" fill="#F9771B"/>
<rect x="434" y="496" width="31" height="31" fill="#F9771B"/>
<rect x="465" y="496" width="31" height="31" fill="#F9771B"/>
<rect x="496" y="496" width="31" height="31" fill="#F9771B"/>
<rect x="527" y="496" width="31" height="31" fill="#F9771B"/>
<rect x="403" y="496" width="31" height="31" fill="#F9771B"/>
<rect x="372" y="496" width="31" height="31" fill="#F9771B"/>
<rect x="310" y="527" width="31" height="31" fill="#F9771B"/>
<rect x="279" y="527" width="31" height="31" fill="#F9771B"/>
<rect x="341" y="496" width="31" height="31" fill="#F9771B"/>
<rect x="310" y="496" width="31" height="31" fill="#F9771B"/>
<rect x="465" y="465" width="31" height="31" fill="#F9771B"/>
<rect x="496" y="465" width="31" height="31" fill="#F9771B"/>
<rect x="527" y="465" width="31" height="31" fill="#F9771B"/>
<rect x="558" y="465" width="31" height="31" fill="#F9771B"/>
<rect x="434" y="465" width="31" height="31" fill="#F9771B"/>
<rect x="403" y="465" width="31" height="31" fill="#F9771B"/>
<rect x="372" y="465" width="31" height="31" fill="#F9771B"/>
<rect x="341" y="465" width="31" height="31" fill="#F9771B"/>
<rect x="279" y="496" width="31" height="31" fill="#F9771B"/>
<rect x="310" y="465" width="31" height="31" fill="#F9771B"/>
<rect x="279" y="465" width="31" height="31" fill="#F9771B"/>
<rect x="310" y="434" width="31" height="31" fill="#F9771B"/>
<rect x="279" y="434" width="31" height="31" fill="#F9771B"/>
<rect x="217" y="527" width="31" height="31" fill="#F9771B"/>
<rect x="186" y="527" width="31" height="31" fill="#F9771B"/>
<rect x="155" y="527" width="31" height="31" fill="#F9771B"/>
<rect x="124" y="527" width="31" height="31" fill="#F9771B"/>
<rect x="93" y="527" width="31" height="31" fill="#F9771B"/>
<rect x="248" y="527" width="31" height="31" fill="#F9771B"/>
<rect x="248" y="496" width="31" height="31" fill="#F9771B"/>
<rect x="186" y="496" width="31" height="31" fill="#F9771B"/>
<rect x="155" y="496" width="31" height="31" fill="#F9771B"/>
<rect x="124" y="496" width="31" height="31" fill="#F9771B"/>
<rect x="93" y="496" width="31" height="31" fill="#F9771B"/>
<rect x="62" y="496" width="31" height="31" fill="#F9771B"/>
<rect x="217" y="496" width="31" height="31" fill="#F9771B"/>
<rect width="31" height="31" transform="matrix(1 0 0 -1 248 93)" fill="#F9771B"/>
<rect width="31" height="31" transform="matrix(1 0 0 -1 217 93)" fill="#F9771B"/>
<rect width="31" height="31" transform="matrix(1 0 0 -1 186 93)" fill="#F9771B"/>
<rect width="31" height="31" transform="matrix(1 0 0 -1 155 93)" fill="#F9771B"/>
<rect width="31" height="31" transform="matrix(1 0 0 -1 372 93)" fill="#F9771B"/>
<rect width="31" height="31" transform="matrix(1 0 0 -1 403 93)" fill="#F9771B"/>
<rect width="31" height="31" transform="matrix(1 0 0 -1 434 93)" fill="#F9771B"/>
<rect width="31" height="31" transform="matrix(1 0 0 -1 341 93)" fill="#F9771B"/>
<rect width="31" height="31" transform="matrix(1 0 0 -1 310 93)" fill="#F9771B"/>
<rect width="31" height="31" transform="matrix(1 0 0 -1 279 93)" fill="#F9771B"/>
<rect width="31" height="31" transform="matrix(1 0 0 -1 217 62)" fill="#F9771B"/>
<rect width="31" height="31" transform="matrix(1 0 0 -1 186 62)" fill="#F9771B"/>
<rect width="31" height="31" transform="matrix(1 0 0 -1 372 62)" fill="#F9771B"/>
<rect width="31" height="31" transform="matrix(1 0 0 -1 403 62)" fill="#F9771B"/>
<rect width="31" height="31" transform="matrix(1 0 0 -1 248 124)" fill="#F9771B"/>
<rect width="31" height="31" transform="matrix(1 0 0 -1 217 124)" fill="#F9771B"/>
<rect width="31" height="31" transform="matrix(1 0 0 -1 186 124)" fill="#F9771B"/>
<rect width="31" height="31" transform="matrix(1 0 0 -1 155 124)" fill="#F9771B"/>
<rect width="31" height="31" transform="matrix(1 0 0 -1 124 124)" fill="#F9771B"/>
<rect width="31" height="31" transform="matrix(1 0 0 -1 372 124)" fill="#F9771B"/>
<rect width="31" height="31" transform="matrix(1 0 0 -1 403 124)" fill="#F9771B"/>
<rect width="31" height="31" transform="matrix(1 0 0 -1 434 124)" fill="#F9771B"/>
<rect width="31" height="31" transform="matrix(1 0 0 -1 465 124)" fill="#F9771B"/>
<rect width="31" height="31" transform="matrix(1 0 0 -1 341 124)" fill="#F9771B"/>
<rect width="31" height="31" transform="matrix(1 0 0 -1 403 155)" fill="#F9771B"/>
<rect width="31" height="31" transform="matrix(1 0 0 -1 434 155)" fill="#F9771B"/>
<rect width="31" height="31" transform="matrix(1 0 0 -1 465 155)" fill="#F9771B"/>
<rect width="31" height="31" transform="matrix(1 0 0 -1 496 155)" fill="#F9771B"/>
<rect width="31" height="31" transform="matrix(1 0 0 -1 372 155)" fill="#F9771B"/>
<rect width="31" height="31" transform="matrix(1 0 0 -1 310 124)" fill="#F9771B"/>
<rect width="31" height="31" transform="matrix(1 0 0 -1 279 124)" fill="#F9771B"/>
<rect width="31" height="31" transform="matrix(1 0 0 -1 341 155)" fill="#F9771B"/>
<rect width="31" height="31" transform="matrix(1 0 0 -1 434 186)" fill="#F9771B"/>
<rect width="31" height="31" transform="matrix(1 0 0 -1 465 186)" fill="#F9771B"/>
<rect width="31" height="31" transform="matrix(1 0 0 -1 496 186)" fill="#F9771B"/>
<rect width="31" height="31" transform="matrix(1 0 0 -1 527 186)" fill="#F9771B"/>
<rect width="31" height="31" transform="matrix(1 0 0 -1 403 186)" fill="#F9771B"/>
<rect width="31" height="31" transform="matrix(1 0 0 -1 372 186)" fill="#F9771B"/>
<rect width="31" height="31" transform="matrix(1 0 0 -1 310 155)" fill="#F9771B"/>
<rect width="31" height="31" transform="matrix(1 0 0 -1 279 155)" fill="#F9771B"/>
<rect width="31" height="31" transform="matrix(1 0 0 -1 341 186)" fill="#F9771B"/>
<rect width="31" height="31" transform="matrix(1 0 0 -1 310 186)" fill="#F9771B"/>
<rect width="31" height="31" transform="matrix(1 0 0 -1 279 186)" fill="#F9771B"/>
<rect width="31" height="31" transform="matrix(1 0 0 -1 217 155)" fill="#F9771B"/>
<rect width="31" height="31" transform="matrix(1 0 0 -1 186 155)" fill="#F9771B"/>
<rect width="31" height="31" transform="matrix(1 0 0 -1 155 155)" fill="#F9771B"/>
<rect width="31" height="31" transform="matrix(1 0 0 -1 124 155)" fill="#F9771B"/>
<rect width="31" height="31" transform="matrix(1 0 0 -1 93 155)" fill="#F9771B"/>
<rect width="31" height="31" transform="matrix(1 0 0 -1 248 155)" fill="#F9771B"/>
<rect width="31" height="31" transform="matrix(1 0 0 -1 248 186)" fill="#F9771B"/>
<rect width="31" height="31" transform="matrix(1 0 0 -1 186 186)" fill="#F9771B"/>
<rect width="31" height="31" transform="matrix(1 0 0 -1 155 186)" fill="#F9771B"/>
<rect width="31" height="31" transform="matrix(1 0 0 -1 124 186)" fill="#F9771B"/>
<rect width="31" height="31" transform="matrix(1 0 0 -1 93 186)" fill="#F9771B"/>
<rect width="31" height="31" transform="matrix(1 0 0 -1 62 186)" fill="#F9771B"/>
<rect width="31" height="31" transform="matrix(1 0 0 -1 217 186)" fill="#F9771B"/>
<rect x="248" y="465" width="31" height="31" fill="#F9771B"/>
<rect x="217" y="465" width="31" height="31" fill="#F9771B"/>
<rect x="155" y="465" width="31" height="31" fill="#F9771B"/>
<rect x="124" y="465" width="31" height="31" fill="#F9771B"/>
<rect x="93" y="465" width="31" height="31" fill="#F9771B"/>
<rect x="62" y="465" width="31" height="31" fill="#F9771B"/>
<rect x="31" y="465" width="31" height="31" fill="#F9771B"/>
<rect x="186" y="465" width="31" height="31" fill="#F9771B"/>
<rect x="465" y="186" width="31" height="31" fill="#F9771B"/>
<rect x="496" y="186" width="31" height="31" fill="#F9771B"/>
<rect x="527" y="186" width="31" height="31" fill="#F9771B"/>
<rect x="558" y="186" width="31" height="31" fill="#F9771B"/>
<rect x="434" y="186" width="31" height="31" fill="#F9771B"/>
<rect x="403" y="186" width="31" height="31" fill="#F9771B"/>
<rect x="372" y="186" width="31" height="31" fill="#F9771B"/>
<rect x="341" y="186" width="31" height="31" fill="#F9771B"/>
<rect x="310" y="186" width="31" height="31" fill="#F9771B"/>
<rect x="279" y="186" width="31" height="31" fill="#F9771B"/>
<rect x="248" y="186" width="31" height="31" fill="#F9771B"/>
<rect x="217" y="186" width="31" height="31" fill="#F9771B"/>
<rect x="155" y="186" width="31" height="31" fill="#F9771B"/>
<rect x="124" y="186" width="31" height="31" fill="#F9771B"/>
<rect x="93" y="186" width="31" height="31" fill="#F9771B"/>
<rect x="62" y="186" width="31" height="31" fill="#F9771B"/>
<rect x="31" y="186" width="31" height="31" fill="#F9771B"/>
<rect x="186" y="186" width="31" height="31" fill="#F9771B"/>
<rect x="248" y="434" width="31" height="31" fill="#F9771B"/>
<rect x="217" y="434" width="31" height="31" fill="#F9771B"/>
<rect x="186" y="434" width="31" height="31" fill="#F9771B"/>
<rect x="124" y="434" width="31" height="31" fill="#F9771B"/>
<rect x="93" y="434" width="31" height="31" fill="#F9771B"/>
<rect x="62" y="434" width="31" height="31" fill="#F9771B"/>
<rect x="31" y="434" width="31" height="31" fill="#F9771B"/>
<rect y="434" width="31" height="31" fill="#F9771B"/>
<rect x="155" y="434" width="31" height="31" fill="#F9771B"/>
<rect x="589" y="434" width="31" height="31" fill="#F9771B"/>
<rect x="558" y="434" width="31" height="31" fill="#F9771B"/>
<rect x="527" y="434" width="31" height="31" fill="#F9771B"/>
<rect x="465" y="434" width="31" height="31" fill="#F9771B"/>
<rect x="434" y="434" width="31" height="31" fill="#F9771B"/>
<rect x="403" y="434" width="31" height="31" fill="#F9771B"/>
<rect x="372" y="434" width="31" height="31" fill="#F9771B"/>
<rect x="341" y="434" width="31" height="31" fill="#F9771B"/>
<rect x="496" y="434" width="31" height="31" fill="#F9771B"/>
<rect x="310" y="403" width="31" height="31" fill="#F9771B"/>
<rect x="279" y="403" width="31" height="31" fill="#F9771B"/>
<rect x="248" y="403" width="31" height="31" fill="#F9771B"/>
<rect x="217" y="403" width="31" height="31" fill="#F9771B"/>
<rect x="186" y="403" width="31" height="31" fill="#F9771B"/>
<rect x="124" y="403" width="31" height="31" fill="#F9771B"/>
<rect x="93" y="403" width="31" height="31" fill="#F9771B"/>
<rect x="62" y="403" width="31" height="31" fill="#F9771B"/>
<rect x="31" y="403" width="31" height="31" fill="#F9771B"/>
<rect y="403" width="31" height="31" fill="#F9771B"/>
<rect x="155" y="403" width="31" height="31" fill="#F9771B"/>
<rect x="589" y="403" width="31" height="31" fill="#F9771B"/>
<rect x="558" y="403" width="31" height="31" fill="#F9771B"/>
<rect x="527" y="403" width="31" height="31" fill="#F9771B"/>
<rect x="465" y="403" width="31" height="31" fill="#F9771B"/>
<rect x="434" y="403" width="31" height="31" fill="#F9771B"/>
<rect x="403" y="403" width="31" height="31" fill="#F9771B"/>
<rect x="372" y="403" width="31" height="31" fill="#F9771B"/>
<rect x="341" y="403" width="31" height="31" fill="#F9771B"/>
<rect x="496" y="403" width="31" height="31" fill="#F9771B"/>
<rect x="310" y="372" width="31" height="31" fill="#F9771B"/>
<rect x="279" y="372" width="31" height="31" fill="#F9771B"/>
<rect x="248" y="372" width="31" height="31" fill="#F9771B"/>
<rect x="217" y="372" width="31" height="31" fill="#F9771B"/>
<rect x="186" y="372" width="31" height="31" fill="#F9771B"/>
<rect x="124" y="372" width="31" height="31" fill="#F9771B"/>
<rect x="93" y="372" width="31" height="31" fill="#F9771B"/>
<rect x="62" y="372" width="31" height="31" fill="#F9771B"/>
<rect x="31" y="372" width="31" height="31" fill="#F9771B"/>
<rect y="372" width="31" height="31" fill="#F9771B"/>
<rect x="155" y="372" width="31" height="31" fill="#F9771B"/>
<rect x="589" y="372" width="31" height="31" fill="#F9771B"/>
<rect x="558" y="372" width="31" height="31" fill="#F9771B"/>
<rect x="527" y="372" width="31" height="31" fill="#F9771B"/>
<rect x="465" y="372" width="31" height="31" fill="#F9771B"/>
<rect x="434" y="372" width="31" height="31" fill="#F9771B"/>
<rect x="403" y="372" width="31" height="31" fill="#F9771B"/>
<rect x="372" y="372" width="31" height="31" fill="#F9771B"/>
<rect x="341" y="372" width="31" height="31" fill="#F9771B"/>
<rect x="496" y="372" width="31" height="31" fill="#F9771B"/>
<rect x="310" y="341" width="31" height="31" fill="#F9771B"/>
<rect x="279" y="341" width="31" height="31" fill="#F9771B"/>
<rect x="248" y="341" width="31" height="31" fill="#F9771B"/>
<rect x="217" y="341" width="31" height="31" fill="#F9771B"/>
<rect x="186" y="341" width="31" height="31" fill="#F9771B"/>
<rect x="124" y="341" width="31" height="31" fill="#F9771B"/>
<rect x="93" y="341" width="31" height="31" fill="#F9771B"/>
<rect x="62" y="341" width="31" height="31" fill="#F9771B"/>
<rect x="31" y="341" width="31" height="31" fill="#F9771B"/>
<rect y="341" width="31" height="31" fill="#F9771B"/>
<rect x="155" y="341" width="31" height="31" fill="#F9771B"/>
<rect x="589" y="341" width="31" height="31" fill="#F9771B"/>
<rect x="558" y="341" width="31" height="31" fill="#F9771B"/>
<rect x="527" y="341" width="31" height="31" fill="#F9771B"/>
<rect x="465" y="341" width="31" height="31" fill="#F9771B"/>
<rect x="434" y="341" width="31" height="31" fill="#F9771B"/>
<rect x="403" y="341" width="31" height="31" fill="#F9771B"/>
<rect x="372" y="341" width="31" height="31" fill="#F9771B"/>
<rect x="341" y="341" width="31" height="31" fill="#F9771B"/>
<rect x="496" y="341" width="31" height="31" fill="#F9771B"/>
<rect x="310" y="310" width="31" height="31" fill="#F9771B"/>
<rect x="279" y="310" width="31" height="31" fill="#F9771B"/>
<rect x="248" y="310" width="31" height="31" fill="#F9771B"/>
<rect x="217" y="310" width="31" height="31" fill="#F9771B"/>
<rect x="186" y="310" width="31" height="31" fill="#F9771B"/>
<rect x="124" y="310" width="31" height="31" fill="#F9771B"/>
<rect x="93" y="310" width="31" height="31" fill="#F9771B"/>
<rect x="62" y="310" width="31" height="31" fill="#F9771B"/>
<rect x="31" y="310" width="31" height="31" fill="#F9771B"/>
<rect y="310" width="31" height="31" fill="#F9771B"/>
<rect x="155" y="310" width="31" height="31" fill="#F9771B"/>
<rect x="589" y="310" width="31" height="31" fill="#F9771B"/>
<rect x="558" y="310" width="31" height="31" fill="#F9771B"/>
<rect x="527" y="310" width="31" height="31" fill="#F9771B"/>
<rect x="465" y="310" width="31" height="31" fill="#F9771B"/>
<rect x="434" y="310" width="31" height="31" fill="#F9771B"/>
<rect x="403" y="310" width="31" height="31" fill="#F9771B"/>
<rect x="372" y="310" width="31" height="31" fill="#F9771B"/>
<rect x="341" y="310" width="31" height="31" fill="#F9771B"/>
<rect x="496" y="310" width="31" height="31" fill="#F9771B"/>
<rect x="310" y="279" width="31" height="31" fill="#F9771B"/>
<rect x="279" y="279" width="31" height="31" fill="#F9771B"/>
<rect x="248" y="279" width="31" height="31" fill="#F9771B"/>
<rect x="217" y="279" width="31" height="31" fill="#F9771B"/>
<rect x="186" y="279" width="31" height="31" fill="#F9771B"/>
<rect x="124" y="279" width="31" height="31" fill="#F9771B"/>
<rect x="93" y="279" width="31" height="31" fill="#F9771B"/>
<rect x="62" y="279" width="31" height="31" fill="#F9771B"/>
<rect x="31" y="279" width="31" height="31" fill="#F9771B"/>
<rect y="279" width="31" height="31" fill="#F9771B"/>
<rect x="155" y="279" width="31" height="31" fill="#F9771B"/>
<rect x="589" y="279" width="31" height="31" fill="#F9771B"/>
<rect x="558" y="279" width="31" height="31" fill="#F9771B"/>
<rect x="527" y="279" width="31" height="31" fill="#F9771B"/>
<rect x="465" y="279" width="31" height="31" fill="#F9771B"/>
<rect x="434" y="279" width="31" height="31" fill="#F9771B"/>
<rect x="403" y="279" width="31" height="31" fill="#F9771B"/>
<rect x="372" y="279" width="31" height="31" fill="#F9771B"/>
<rect x="341" y="279" width="31" height="31" fill="#F9771B"/>
<rect x="496" y="279" width="31" height="31" fill="#F9771B"/>
<rect x="310" y="248" width="31" height="31" fill="#F9771B"/>
<rect x="279" y="248" width="31" height="31" fill="#F9771B"/>
<rect x="248" y="248" width="31" height="31" fill="#F9771B"/>
<rect x="217" y="248" width="31" height="31" fill="#F9771B"/>
<rect x="186" y="248" width="31" height="31" fill="#F9771B"/>
<rect x="124" y="248" width="31" height="31" fill="#F9771B"/>
<rect x="93" y="248" width="31" height="31" fill="#F9771B"/>
<rect x="62" y="248" width="31" height="31" fill="#F9771B"/>
<rect x="31" y="248" width="31" height="31" fill="#F9771B"/>
<rect y="248" width="31" height="31" fill="#F9771B"/>
<rect x="155" y="248" width="31" height="31" fill="#F9771B"/>
<rect x="589" y="248" width="31" height="31" fill="#F9771B"/>
<rect x="558" y="248" width="31" height="31" fill="#F9771B"/>
<rect x="527" y="248" width="31" height="31" fill="#F9771B"/>
<rect x="465" y="248" width="31" height="31" fill="#F9771B"/>
<rect x="434" y="248" width="31" height="31" fill="#F9771B"/>
<rect x="403" y="248" width="31" height="31" fill="#F9771B"/>
<rect x="372" y="248" width="31" height="31" fill="#F9771B"/>
<rect x="341" y="248" width="31" height="31" fill="#F9771B"/>
<rect x="496" y="248" width="31" height="31" fill="#F9771B"/>
<rect x="310" y="217" width="31" height="31" fill="#F9771B"/>
<rect x="279" y="217" width="31" height="31" fill="#F9771B"/>
<rect x="248" y="217" width="31" height="31" fill="#F9771B"/>
<rect x="217" y="217" width="31" height="31" fill="#F9771B"/>
<rect x="186" y="217" width="31" height="31" fill="#F9771B"/>
<rect x="124" y="217" width="31" height="31" fill="#F9771B"/>
<rect x="93" y="217" width="31" height="31" fill="#F9771B"/>
<rect x="62" y="217" width="31" height="31" fill="#F9771B"/>
<rect x="31" y="217" width="31" height="31" fill="#F9771B"/>
<rect y="217" width="31" height="31" fill="#F9771B"/>
<rect x="155" y="217" width="31" height="31" fill="#F9771B"/>
<rect x="589" y="217" width="31" height="31" fill="#F9771B"/>
<rect x="558" y="217" width="31" height="31" fill="#F9771B"/>
<rect x="527" y="217" width="31" height="31" fill="#F9771B"/>
<rect x="465" y="217" width="31" height="31" fill="#F9771B"/>
<rect x="434" y="217" width="31" height="31" fill="#F9771B"/>
<rect x="403" y="217" width="31" height="31" fill="#F9771B"/>
<rect x="372" y="217" width="31" height="31" fill="#F9771B"/>
<rect x="341" y="217" width="31" height="31" fill="#F9771B"/>
<rect x="496" y="217" width="31" height="31" fill="#F9771B"/>
<rect x="279" y="806" width="31" height="31" fill="#F9771B"/>
<rect x="248" y="806" width="31" height="31" fill="#F9771B"/>
<rect x="217" y="806" width="31" height="31" fill="#F9771B"/>
<rect x="372" y="806" width="31" height="31" fill="#F9771B"/>
<rect x="341" y="806" width="31" height="31" fill="#F9771B"/>
<rect x="310" y="806" width="31" height="31" fill="#F9771B"/>
<rect x="279" y="837" width="31" height="31" fill="#F9771B"/>
<rect x="248" y="837" width="31" height="31" fill="#F9771B"/>
<rect x="341" y="837" width="31" height="31" fill="#F9771B"/>
<rect x="310" y="837" width="31" height="31" fill="#F9771B"/>
<rect x="279" y="868" width="31" height="31" fill="#F9771B"/>
<rect x="155" y="775" width="31" height="31" fill="#F9771B"/>
<rect x="155" y="744" width="31" height="31" fill="#F9771B"/>
<rect x="155" y="713" width="31" height="31" fill="#F9771B"/>
<rect x="155" y="682" width="31" height="31" fill="#F9771B"/>
<rect x="186" y="806" width="31" height="31" fill="#F9771B"/>
<rect x="217" y="837" width="31" height="31" fill="#F9771B"/>
<rect x="248" y="868" width="31" height="31" fill="#F9771B"/>
<rect x="310" y="868" width="31" height="31" fill="#F9771B"/>
<rect x="434" y="775" width="31" height="31" fill="#F9771B"/>
<rect x="434" y="744" width="31" height="31" fill="#F9771B"/>
<rect x="434" y="713" width="31" height="31" fill="#F9771B"/>
<rect x="434" y="682" width="31" height="31" fill="#F9771B"/>
<rect x="403" y="806" width="31" height="31" fill="#F9771B"/>
<rect x="372" y="837" width="31" height="31" fill="#F9771B"/>
<rect x="341" y="868" width="31" height="31" fill="#F9771B"/>
<rect width="31" height="31" transform="matrix(1 0 0 -1 248 62)" fill="#F9771B"/>
<rect width="31" height="31" transform="matrix(1 0 0 -1 341 62)" fill="#F9771B"/>
<rect width="31" height="31" transform="matrix(1 0 0 -1 310 62)" fill="#F9771B"/>
<rect width="31" height="31" transform="matrix(1 0 0 -1 279 62)" fill="#F9771B"/>
<rect width="31" height="31" transform="matrix(1 0 0 -1 248 62)" fill="#F9771B"/>
<rect width="31" height="31" transform="matrix(1 0 0 -1 341 62)" fill="#F9771B"/>
<rect width="31" height="31" transform="matrix(1 0 0 -1 310 62)" fill="#F9771B"/>
<rect width="31" height="31" transform="matrix(1 0 0 -1 279 62)" fill="#F9771B"/>
<rect width="31" height="31" transform="matrix(1 0 0 -1 248 31)" fill="#F9771B"/>
<rect width="31" height="31" transform="matrix(1 0 0 -1 341 31)" fill="#F9771B"/>
<rect width="31" height="31" transform="matrix(1 0 0 -1 310 31)" fill="#F9771B"/>
<rect width="31" height="31" transform="matrix(1 0 0 -1 279 31)" fill="#F9771B"/>
<rect width="31" height="31" transform="matrix(1 0 0 -1 248 31)" fill="#F9771B"/>
<rect width="31" height="31" transform="matrix(1 0 0 -1 341 31)" fill="#F9771B"/>
<rect width="31" height="31" transform="matrix(1 0 0 -1 310 31)" fill="#F9771B"/>
<rect width="31" height="31" transform="matrix(1 0 0 -1 279 31)" fill="#F9771B"/>
</svg>
