<svg width="496" height="775" viewBox="0 0 496 775" fill="none" xmlns="http://www.w3.org/2000/svg">
<rect x="217" y="527" width="31" height="31" fill="#FF964C"/>
<rect x="186" y="527" width="31" height="31" fill="#FF964C"/>
<rect x="155" y="527" width="31" height="31" fill="#FF964C"/>
<rect x="310" y="527" width="31" height="31" fill="#FF964C"/>
<rect x="155" y="558" width="31" height="31" fill="#FF964C"/>
<rect x="310" y="558" width="31" height="31" fill="#FF964C"/>
<rect x="279" y="527" width="31" height="31" fill="#FF964C"/>
<rect x="248" y="527" width="31" height="31" fill="#FF964C"/>
<rect x="217" y="620" width="31" height="31" fill="#FF964C"/>
<rect x="186" y="620" width="31" height="31" fill="#FF964C"/>
<rect x="155" y="620" width="31" height="31" fill="#FF964C"/>
<rect x="310" y="620" width="31" height="31" fill="#FF964C"/>
<rect x="279" y="620" width="31" height="31" fill="#FF964C"/>
<rect x="248" y="620" width="31" height="31" fill="#FF964C"/>
<rect x="217" y="651" width="31" height="31" fill="#FF964C"/>
<rect x="186" y="651" width="31" height="31" fill="#FF964C"/>
<rect x="155" y="651" width="31" height="31" fill="#FF964C"/>
<rect x="310" y="651" width="31" height="31" fill="#FF964C"/>
<rect x="279" y="651" width="31" height="31" fill="#FF964C"/>
<rect x="248" y="651" width="31" height="31" fill="#FF964C"/>
<rect x="217" y="558" width="31" height="31" fill="#FF964C"/>
<rect x="186" y="558" width="31" height="31" fill="#FF964C"/>
<rect x="279" y="558" width="31" height="31" fill="#FF964C"/>
<rect x="248" y="558" width="31" height="31" fill="#FF964C"/>
<rect x="217" y="713" width="31" height="31" fill="#FF964C"/>
<rect x="186" y="713" width="31" height="31" fill="#FF964C"/>
<rect x="279" y="713" width="31" height="31" fill="#FF964C"/>
<rect x="248" y="713" width="31" height="31" fill="#FF964C"/>
<rect x="217" y="713" width="31" height="31" fill="#FF964C"/>
<rect x="186" y="713" width="31" height="31" fill="#FF964C"/>
<rect x="279" y="713" width="31" height="31" fill="#FF964C"/>
<rect x="248" y="713" width="31" height="31" fill="#FF964C"/>
<rect x="217" y="744" width="31" height="31" fill="#FF964C"/>
<rect x="248" y="744" width="31" height="31" fill="#FF964C"/>
<rect x="186" y="496" width="31" height="31" fill="#FF964C"/>
<rect x="155" y="496" width="31" height="31" fill="#FF964C"/>
<rect x="310" y="496" width="31" height="31" fill="#FF964C"/>
<rect x="279" y="496" width="31" height="31" fill="#FF964C"/>
<rect x="248" y="496" width="31" height="31" fill="#FF964C"/>
<rect x="217" y="496" width="31" height="31" fill="#FF964C"/>
<rect x="186" y="465" width="31" height="31" fill="#FF964C"/>
<rect x="155" y="465" width="31" height="31" fill="#FF964C"/>
<rect x="310" y="465" width="31" height="31" fill="#FF964C"/>
<rect x="279" y="465" width="31" height="31" fill="#FF964C"/>
<rect x="341" y="434" width="31" height="31" fill="#FF964C"/>
<rect x="372" y="434" width="31" height="31" fill="#FF964C"/>
<rect x="310" y="434" width="31" height="31" fill="#FF964C"/>
<rect x="248" y="465" width="31" height="31" fill="#FF964C"/>
<rect x="217" y="465" width="31" height="31" fill="#FF964C"/>
<rect x="279" y="434" width="31" height="31" fill="#FF964C"/>
<rect x="372" y="403" width="31" height="31" fill="#FF964C"/>
<rect x="403" y="403" width="31" height="31" fill="#FF964C"/>
<rect x="341" y="403" width="31" height="31" fill="#FF964C"/>
<rect x="310" y="403" width="31" height="31" fill="#FF964C"/>
<rect x="248" y="434" width="31" height="31" fill="#FF964C"/>
<rect x="217" y="434" width="31" height="31" fill="#FF964C"/>
<rect x="279" y="403" width="31" height="31" fill="#FF964C"/>
<rect x="248" y="403" width="31" height="31" fill="#FF964C"/>
<rect x="403" y="372" width="31" height="31" fill="#FF964C"/>
<rect x="434" y="372" width="31" height="31" fill="#FF964C"/>
<rect x="372" y="372" width="31" height="31" fill="#FF964C"/>
<rect x="341" y="372" width="31" height="31" fill="#FF964C"/>
<rect x="310" y="372" width="31" height="31" fill="#FF964C"/>
<rect x="279" y="372" width="31" height="31" fill="#FF964C"/>
<rect x="217" y="403" width="31" height="31" fill="#FF964C"/>
<rect x="248" y="372" width="31" height="31" fill="#FF964C"/>
<rect x="217" y="372" width="31" height="31" fill="#FF964C"/>
<rect x="248" y="341" width="31" height="31" fill="#FF964C"/>
<rect x="217" y="341" width="31" height="31" fill="#FF964C"/>
<rect x="155" y="434" width="31" height="31" fill="#FF964C"/>
<rect x="124" y="434" width="31" height="31" fill="#FF964C"/>
<rect x="341" y="465" width="31" height="31" fill="#FF964C"/>
<rect x="124" y="465" width="31" height="31" fill="#FF964C"/>
<rect x="93" y="434" width="31" height="31" fill="#FF964C"/>
<rect x="186" y="434" width="31" height="31" fill="#FF964C"/>
<rect x="186" y="403" width="31" height="31" fill="#FF964C"/>
<rect x="124" y="403" width="31" height="31" fill="#FF964C"/>
<rect x="93" y="403" width="31" height="31" fill="#FF964C"/>
<rect x="62" y="403" width="31" height="31" fill="#FF964C"/>
<rect x="155" y="403" width="31" height="31" fill="#FF964C"/>
<rect width="31" height="31" transform="matrix(1 0 0 -1 186 31)" fill="#FF964C"/>
<rect width="31" height="31" transform="matrix(1 0 0 -1 155 31)" fill="#FF964C"/>
<rect width="31" height="31" transform="matrix(1 0 0 -1 124 31)" fill="#FF964C"/>
<rect width="31" height="31" transform="matrix(1 0 0 -1 310 31)" fill="#FF964C"/>
<rect width="31" height="31" transform="matrix(1 0 0 -1 341 31)" fill="#FF964C"/>
<rect width="31" height="31" transform="matrix(1 0 0 -1 279 31)" fill="#FF964C"/>
<rect width="31" height="31" transform="matrix(1 0 0 -1 341 62)" fill="#FF964C"/>
<rect width="31" height="31" transform="matrix(1 0 0 -1 372 62)" fill="#FF964C"/>
<rect width="31" height="31" transform="matrix(1 0 0 -1 310 62)" fill="#FF964C"/>
<rect width="31" height="31" transform="matrix(1 0 0 -1 248 31)" fill="#FF964C"/>
<rect width="31" height="31" transform="matrix(1 0 0 -1 217 31)" fill="#FF964C"/>
<rect width="31" height="31" transform="matrix(1 0 0 -1 279 62)" fill="#FF964C"/>
<rect width="31" height="31" transform="matrix(1 0 0 -1 372 93)" fill="#FF964C"/>
<rect width="31" height="31" transform="matrix(1 0 0 -1 403 93)" fill="#FF964C"/>
<rect width="31" height="31" transform="matrix(1 0 0 -1 341 93)" fill="#FF964C"/>
<rect width="31" height="31" transform="matrix(1 0 0 -1 310 93)" fill="#FF964C"/>
<rect width="31" height="31" transform="matrix(1 0 0 -1 248 62)" fill="#FF964C"/>
<rect width="31" height="31" transform="matrix(1 0 0 -1 217 62)" fill="#FF964C"/>
<rect width="31" height="31" transform="matrix(1 0 0 -1 279 93)" fill="#FF964C"/>
<rect width="31" height="31" transform="matrix(1 0 0 -1 248 93)" fill="#FF964C"/>
<rect width="31" height="31" transform="matrix(1 0 0 -1 217 93)" fill="#FF964C"/>
<rect width="31" height="31" transform="matrix(1 0 0 -1 155 62)" fill="#FF964C"/>
<rect width="31" height="31" transform="matrix(1 0 0 -1 124 62)" fill="#FF964C"/>
<rect width="31" height="31" transform="matrix(1 0 0 -1 93 62)" fill="#FF964C"/>
<rect width="31" height="31" transform="matrix(1 0 0 -1 186 62)" fill="#FF964C"/>
<rect width="31" height="31" transform="matrix(1 0 0 -1 186 93)" fill="#FF964C"/>
<rect width="31" height="31" transform="matrix(1 0 0 -1 124 93)" fill="#FF964C"/>
<rect width="31" height="31" transform="matrix(1 0 0 -1 93 93)" fill="#FF964C"/>
<rect width="31" height="31" transform="matrix(1 0 0 -1 62 93)" fill="#FF964C"/>
<rect width="31" height="31" transform="matrix(1 0 0 -1 155 93)" fill="#FF964C"/>
<rect x="186" y="372" width="31" height="31" fill="#FF964C"/>
<rect x="155" y="372" width="31" height="31" fill="#FF964C"/>
<rect x="93" y="372" width="31" height="31" fill="#FF964C"/>
<rect x="62" y="372" width="31" height="31" fill="#FF964C"/>
<rect x="31" y="372" width="31" height="31" fill="#FF964C"/>
<rect x="124" y="372" width="31" height="31" fill="#FF964C"/>
<rect x="403" y="93" width="31" height="31" fill="#FF964C"/>
<rect x="434" y="93" width="31" height="31" fill="#FF964C"/>
<rect x="372" y="93" width="31" height="31" fill="#FF964C"/>
<rect x="341" y="93" width="31" height="31" fill="#FF964C"/>
<rect x="310" y="93" width="31" height="31" fill="#FF964C"/>
<rect x="279" y="93" width="31" height="31" fill="#FF964C"/>
<rect x="248" y="93" width="31" height="31" fill="#FF964C"/>
<rect x="217" y="93" width="31" height="31" fill="#FF964C"/>
<rect x="186" y="93" width="31" height="31" fill="#FF964C"/>
<rect x="155" y="93" width="31" height="31" fill="#FF964C"/>
<rect x="93" y="93" width="31" height="31" fill="#FF964C"/>
<rect x="62" y="93" width="31" height="31" fill="#FF964C"/>
<rect x="31" y="93" width="31" height="31" fill="#FF964C"/>
<rect x="124" y="93" width="31" height="31" fill="#FF964C"/>
<rect x="186" y="341" width="31" height="31" fill="#FF964C"/>
<rect x="155" y="341" width="31" height="31" fill="#FF964C"/>
<rect x="124" y="341" width="31" height="31" fill="#FF964C"/>
<rect x="62" y="341" width="31" height="31" fill="#FF964C"/>
<rect x="31" y="341" width="31" height="31" fill="#FF964C"/>
<rect y="341" width="31" height="31" fill="#FF964C"/>
<rect x="93" y="341" width="31" height="31" fill="#FF964C"/>
<rect x="465" y="341" width="31" height="31" fill="#FF964C"/>
<rect x="403" y="341" width="31" height="31" fill="#FF964C"/>
<rect x="372" y="341" width="31" height="31" fill="#FF964C"/>
<rect x="341" y="341" width="31" height="31" fill="#FF964C"/>
<rect x="310" y="341" width="31" height="31" fill="#FF964C"/>
<rect x="279" y="341" width="31" height="31" fill="#FF964C"/>
<rect x="434" y="341" width="31" height="31" fill="#FF964C"/>
<rect x="248" y="310" width="31" height="31" fill="#FF964C"/>
<rect x="217" y="310" width="31" height="31" fill="#FF964C"/>
<rect x="186" y="310" width="31" height="31" fill="#FF964C"/>
<rect x="155" y="310" width="31" height="31" fill="#FF964C"/>
<rect x="124" y="310" width="31" height="31" fill="#FF964C"/>
<rect x="62" y="310" width="31" height="31" fill="#FF964C"/>
<rect x="31" y="310" width="31" height="31" fill="#FF964C"/>
<rect y="310" width="31" height="31" fill="#FF964C"/>
<rect x="93" y="310" width="31" height="31" fill="#FF964C"/>
<rect x="465" y="310" width="31" height="31" fill="#FF964C"/>
<rect x="403" y="310" width="31" height="31" fill="#FF964C"/>
<rect x="372" y="310" width="31" height="31" fill="#FF964C"/>
<rect x="341" y="310" width="31" height="31" fill="#FF964C"/>
<rect x="310" y="310" width="31" height="31" fill="#FF964C"/>
<rect x="279" y="310" width="31" height="31" fill="#FF964C"/>
<rect x="434" y="310" width="31" height="31" fill="#FF964C"/>
<rect x="248" y="279" width="31" height="31" fill="#FF964C"/>
<rect x="217" y="279" width="31" height="31" fill="#FF964C"/>
<rect x="186" y="279" width="31" height="31" fill="#FF964C"/>
<rect x="155" y="279" width="31" height="31" fill="#FF964C"/>
<rect x="124" y="279" width="31" height="31" fill="#FF964C"/>
<rect x="62" y="279" width="31" height="31" fill="#FF964C"/>
<rect x="31" y="279" width="31" height="31" fill="#FF964C"/>
<rect y="279" width="31" height="31" fill="#FF964C"/>
<rect x="93" y="279" width="31" height="31" fill="#FF964C"/>
<rect x="465" y="279" width="31" height="31" fill="#FF964C"/>
<rect x="403" y="279" width="31" height="31" fill="#FF964C"/>
<rect x="372" y="279" width="31" height="31" fill="#FF964C"/>
<rect x="341" y="279" width="31" height="31" fill="#FF964C"/>
<rect x="310" y="279" width="31" height="31" fill="#FF964C"/>
<rect x="279" y="279" width="31" height="31" fill="#FF964C"/>
<rect x="434" y="279" width="31" height="31" fill="#FF964C"/>
<rect x="248" y="248" width="31" height="31" fill="#FF964C"/>
<rect x="217" y="248" width="31" height="31" fill="#FF964C"/>
<rect x="186" y="248" width="31" height="31" fill="#FF964C"/>
<rect x="155" y="248" width="31" height="31" fill="#FF964C"/>
<rect x="124" y="248" width="31" height="31" fill="#FF964C"/>
<rect x="62" y="248" width="31" height="31" fill="#FF964C"/>
<rect x="31" y="248" width="31" height="31" fill="#FF964C"/>
<rect y="248" width="31" height="31" fill="#FF964C"/>
<rect x="93" y="248" width="31" height="31" fill="#FF964C"/>
<rect x="465" y="248" width="31" height="31" fill="#FF964C"/>
<rect x="403" y="248" width="31" height="31" fill="#FF964C"/>
<rect x="372" y="248" width="31" height="31" fill="#FF964C"/>
<rect x="341" y="248" width="31" height="31" fill="#FF964C"/>
<rect x="310" y="248" width="31" height="31" fill="#FF964C"/>
<rect x="279" y="248" width="31" height="31" fill="#FF964C"/>
<rect x="434" y="248" width="31" height="31" fill="#FF964C"/>
<rect x="248" y="217" width="31" height="31" fill="#FF964C"/>
<rect x="217" y="217" width="31" height="31" fill="#FF964C"/>
<rect x="186" y="217" width="31" height="31" fill="#FF964C"/>
<rect x="155" y="217" width="31" height="31" fill="#FF964C"/>
<rect x="124" y="217" width="31" height="31" fill="#FF964C"/>
<rect x="62" y="217" width="31" height="31" fill="#FF964C"/>
<rect x="31" y="217" width="31" height="31" fill="#FF964C"/>
<rect y="217" width="31" height="31" fill="#FF964C"/>
<rect x="93" y="217" width="31" height="31" fill="#FF964C"/>
<rect x="465" y="217" width="31" height="31" fill="#FF964C"/>
<rect x="403" y="217" width="31" height="31" fill="#FF964C"/>
<rect x="372" y="217" width="31" height="31" fill="#FF964C"/>
<rect x="341" y="217" width="31" height="31" fill="#FF964C"/>
<rect x="310" y="217" width="31" height="31" fill="#FF964C"/>
<rect x="279" y="217" width="31" height="31" fill="#FF964C"/>
<rect x="434" y="217" width="31" height="31" fill="#FF964C"/>
<rect x="248" y="186" width="31" height="31" fill="#FF964C"/>
<rect x="217" y="186" width="31" height="31" fill="#FF964C"/>
<rect x="186" y="186" width="31" height="31" fill="#FF964C"/>
<rect x="155" y="186" width="31" height="31" fill="#FF964C"/>
<rect x="124" y="186" width="31" height="31" fill="#FF964C"/>
<rect x="62" y="186" width="31" height="31" fill="#FF964C"/>
<rect x="31" y="186" width="31" height="31" fill="#FF964C"/>
<rect y="186" width="31" height="31" fill="#FF964C"/>
<rect x="93" y="186" width="31" height="31" fill="#FF964C"/>
<rect x="465" y="186" width="31" height="31" fill="#FF964C"/>
<rect x="403" y="186" width="31" height="31" fill="#FF964C"/>
<rect x="372" y="186" width="31" height="31" fill="#FF964C"/>
<rect x="341" y="186" width="31" height="31" fill="#FF964C"/>
<rect x="310" y="186" width="31" height="31" fill="#FF964C"/>
<rect x="279" y="186" width="31" height="31" fill="#FF964C"/>
<rect x="434" y="186" width="31" height="31" fill="#FF964C"/>
<rect x="248" y="155" width="31" height="31" fill="#FF964C"/>
<rect x="217" y="155" width="31" height="31" fill="#FF964C"/>
<rect x="186" y="155" width="31" height="31" fill="#FF964C"/>
<rect x="155" y="155" width="31" height="31" fill="#FF964C"/>
<rect x="124" y="155" width="31" height="31" fill="#FF964C"/>
<rect x="62" y="155" width="31" height="31" fill="#FF964C"/>
<rect x="31" y="155" width="31" height="31" fill="#FF964C"/>
<rect y="155" width="31" height="31" fill="#FF964C"/>
<rect x="93" y="155" width="31" height="31" fill="#FF964C"/>
<rect x="465" y="155" width="31" height="31" fill="#FF964C"/>
<rect x="403" y="155" width="31" height="31" fill="#FF964C"/>
<rect x="372" y="155" width="31" height="31" fill="#FF964C"/>
<rect x="341" y="155" width="31" height="31" fill="#FF964C"/>
<rect x="310" y="155" width="31" height="31" fill="#FF964C"/>
<rect x="279" y="155" width="31" height="31" fill="#FF964C"/>
<rect x="434" y="155" width="31" height="31" fill="#FF964C"/>
<rect x="248" y="124" width="31" height="31" fill="#FF964C"/>
<rect x="217" y="124" width="31" height="31" fill="#FF964C"/>
<rect x="186" y="124" width="31" height="31" fill="#FF964C"/>
<rect x="155" y="124" width="31" height="31" fill="#FF964C"/>
<rect x="124" y="124" width="31" height="31" fill="#FF964C"/>
<rect x="62" y="124" width="31" height="31" fill="#FF964C"/>
<rect x="31" y="124" width="31" height="31" fill="#FF964C"/>
<rect y="124" width="31" height="31" fill="#FF964C"/>
<rect x="93" y="124" width="31" height="31" fill="#FF964C"/>
<rect x="465" y="124" width="31" height="31" fill="#FF964C"/>
<rect x="403" y="124" width="31" height="31" fill="#FF964C"/>
<rect x="372" y="124" width="31" height="31" fill="#FF964C"/>
<rect x="341" y="124" width="31" height="31" fill="#FF964C"/>
<rect x="310" y="124" width="31" height="31" fill="#FF964C"/>
<rect x="279" y="124" width="31" height="31" fill="#FF964C"/>
<rect x="434" y="124" width="31" height="31" fill="#FF964C"/>
</svg>
