<svg width="372" height="465" viewBox="0 0 372 465" fill="none" xmlns="http://www.w3.org/2000/svg">
<rect x="217" y="372" width="31" height="31" fill="#FFB683"/>
<rect x="186" y="372" width="31" height="31" fill="#FFB683"/>
<rect x="155" y="372" width="31" height="31" fill="#FFB683"/>
<rect x="186" y="403" width="31" height="31" fill="#FFB683"/>
<rect x="155" y="403" width="31" height="31" fill="#FFB683"/>
<rect x="186" y="434" width="31" height="31" fill="#FFB683"/>
<rect x="155" y="434" width="31" height="31" fill="#FFB683"/>
<rect x="217" y="341" width="31" height="31" fill="#FFB683"/>
<rect x="186" y="341" width="31" height="31" fill="#FFB683"/>
<rect x="248" y="310" width="31" height="31" fill="#FFB683"/>
<rect x="217" y="310" width="31" height="31" fill="#FFB683"/>
<rect x="155" y="341" width="31" height="31" fill="#FFB683"/>
<rect x="186" y="310" width="31" height="31" fill="#FFB683"/>
<rect x="155" y="310" width="31" height="31" fill="#FFB683"/>
<rect x="186" y="279" width="31" height="31" fill="#FFB683"/>
<rect x="155" y="279" width="31" height="31" fill="#FFB683"/>
<rect x="124" y="372" width="31" height="31" fill="#FFB683"/>
<rect x="217" y="403" width="31" height="31" fill="#FFB683"/>
<rect x="124" y="403" width="31" height="31" fill="#FFB683"/>
<rect x="124" y="341" width="31" height="31" fill="#FFB683"/>
<rect width="31" height="31" transform="matrix(1 0 0 -1 248 31)" fill="#FFB683"/>
<rect width="31" height="31" transform="matrix(1 0 0 -1 217 31)" fill="#FFB683"/>
<rect width="31" height="31" transform="matrix(1 0 0 -1 186 31)" fill="#FFB683"/>
<rect width="31" height="31" transform="matrix(1 0 0 -1 155 31)" fill="#FFB683"/>
<rect width="31" height="31" transform="matrix(1 0 0 -1 124 31)" fill="#FFB683"/>
<rect width="31" height="31" transform="matrix(1 0 0 -1 93 31)" fill="#FFB683"/>
<rect x="124" y="310" width="31" height="31" fill="#FFB683"/>
<rect x="93" y="310" width="31" height="31" fill="#FFB683"/>
<rect x="248" y="341" width="31" height="31" fill="#FFB683"/>
<rect x="93" y="341" width="31" height="31" fill="#FFB683"/>
<rect x="279" y="31" width="31" height="31" fill="#FFB683"/>
<rect x="248" y="31" width="31" height="31" fill="#FFB683"/>
<rect x="217" y="31" width="31" height="31" fill="#FFB683"/>
<rect x="186" y="31" width="31" height="31" fill="#FFB683"/>
<rect x="155" y="31" width="31" height="31" fill="#FFB683"/>
<rect x="124" y="31" width="31" height="31" fill="#FFB683"/>
<rect x="93" y="31" width="31" height="31" fill="#FFB683"/>
<rect x="62" y="31" width="31" height="31" fill="#FFB683"/>
<rect x="124" y="279" width="31" height="31" fill="#FFB683"/>
<rect x="93" y="279" width="31" height="31" fill="#FFB683"/>
<rect x="62" y="279" width="31" height="31" fill="#FFB683"/>
<rect x="279" y="279" width="31" height="31" fill="#FFB683"/>
<rect x="248" y="279" width="31" height="31" fill="#FFB683"/>
<rect x="217" y="279" width="31" height="31" fill="#FFB683"/>
<rect x="186" y="248" width="31" height="31" fill="#FFB683"/>
<rect x="155" y="248" width="31" height="31" fill="#FFB683"/>
<rect x="124" y="248" width="31" height="31" fill="#FFB683"/>
<rect x="93" y="248" width="31" height="31" fill="#FFB683"/>
<rect x="62" y="248" width="31" height="31" fill="#FFB683"/>
<rect x="31" y="248" width="31" height="31" fill="#FFB683"/>
<rect x="62" y="310" width="31" height="31" fill="#FFB683"/>
<rect x="31" y="279" width="31" height="31" fill="#FFB683"/>
<rect y="248" width="31" height="31" fill="#FFB683"/>
<rect width="31" height="31" transform="matrix(-1 0 0 1 310 310)" fill="#FFB683"/>
<rect width="31" height="31" transform="matrix(-1 0 0 1 341 279)" fill="#FFB683"/>
<rect width="31" height="31" transform="matrix(-1 0 0 1 372 248)" fill="#FFB683"/>
<rect x="310" y="248" width="31" height="31" fill="#FFB683"/>
<rect x="279" y="248" width="31" height="31" fill="#FFB683"/>
<rect x="248" y="248" width="31" height="31" fill="#FFB683"/>
<rect x="217" y="248" width="31" height="31" fill="#FFB683"/>
<rect x="186" y="217" width="31" height="31" fill="#FFB683"/>
<rect x="155" y="217" width="31" height="31" fill="#FFB683"/>
<rect x="124" y="217" width="31" height="31" fill="#FFB683"/>
<rect x="93" y="217" width="31" height="31" fill="#FFB683"/>
<rect x="62" y="217" width="31" height="31" fill="#FFB683"/>
<rect y="217" width="31" height="31" fill="#FFB683"/>
<rect x="31" y="217" width="31" height="31" fill="#FFB683"/>
<rect x="341" y="217" width="31" height="31" fill="#FFB683"/>
<rect x="310" y="217" width="31" height="31" fill="#FFB683"/>
<rect x="279" y="217" width="31" height="31" fill="#FFB683"/>
<rect x="248" y="217" width="31" height="31" fill="#FFB683"/>
<rect x="217" y="217" width="31" height="31" fill="#FFB683"/>
<rect x="186" y="186" width="31" height="31" fill="#FFB683"/>
<rect x="155" y="186" width="31" height="31" fill="#FFB683"/>
<rect x="124" y="186" width="31" height="31" fill="#FFB683"/>
<rect x="93" y="186" width="31" height="31" fill="#FFB683"/>
<rect x="62" y="186" width="31" height="31" fill="#FFB683"/>
<rect y="186" width="31" height="31" fill="#FFB683"/>
<rect x="31" y="186" width="31" height="31" fill="#FFB683"/>
<rect x="341" y="186" width="31" height="31" fill="#FFB683"/>
<rect x="310" y="186" width="31" height="31" fill="#FFB683"/>
<rect x="279" y="186" width="31" height="31" fill="#FFB683"/>
<rect x="248" y="186" width="31" height="31" fill="#FFB683"/>
<rect x="217" y="186" width="31" height="31" fill="#FFB683"/>
<rect x="186" y="155" width="31" height="31" fill="#FFB683"/>
<rect x="155" y="155" width="31" height="31" fill="#FFB683"/>
<rect x="124" y="155" width="31" height="31" fill="#FFB683"/>
<rect x="93" y="155" width="31" height="31" fill="#FFB683"/>
<rect x="62" y="155" width="31" height="31" fill="#FFB683"/>
<rect y="155" width="31" height="31" fill="#FFB683"/>
<rect x="31" y="155" width="31" height="31" fill="#FFB683"/>
<rect x="341" y="155" width="31" height="31" fill="#FFB683"/>
<rect x="310" y="155" width="31" height="31" fill="#FFB683"/>
<rect x="279" y="155" width="31" height="31" fill="#FFB683"/>
<rect x="248" y="155" width="31" height="31" fill="#FFB683"/>
<rect x="217" y="155" width="31" height="31" fill="#FFB683"/>
<rect x="186" y="124" width="31" height="31" fill="#FFB683"/>
<rect x="155" y="124" width="31" height="31" fill="#FFB683"/>
<rect x="124" y="124" width="31" height="31" fill="#FFB683"/>
<rect x="93" y="124" width="31" height="31" fill="#FFB683"/>
<rect x="62" y="124" width="31" height="31" fill="#FFB683"/>
<rect y="124" width="31" height="31" fill="#FFB683"/>
<rect x="31" y="124" width="31" height="31" fill="#FFB683"/>
<rect x="341" y="124" width="31" height="31" fill="#FFB683"/>
<rect x="310" y="124" width="31" height="31" fill="#FFB683"/>
<rect x="279" y="124" width="31" height="31" fill="#FFB683"/>
<rect x="248" y="124" width="31" height="31" fill="#FFB683"/>
<rect x="217" y="124" width="31" height="31" fill="#FFB683"/>
<rect x="186" y="93" width="31" height="31" fill="#FFB683"/>
<rect x="155" y="93" width="31" height="31" fill="#FFB683"/>
<rect x="124" y="93" width="31" height="31" fill="#FFB683"/>
<rect x="93" y="93" width="31" height="31" fill="#FFB683"/>
<rect x="62" y="93" width="31" height="31" fill="#FFB683"/>
<rect y="93" width="31" height="31" fill="#FFB683"/>
<rect x="31" y="93" width="31" height="31" fill="#FFB683"/>
<rect x="341" y="93" width="31" height="31" fill="#FFB683"/>
<rect x="310" y="93" width="31" height="31" fill="#FFB683"/>
<rect x="279" y="93" width="31" height="31" fill="#FFB683"/>
<rect x="248" y="93" width="31" height="31" fill="#FFB683"/>
<rect x="217" y="93" width="31" height="31" fill="#FFB683"/>
<rect x="186" y="62" width="31" height="31" fill="#FFB683"/>
<rect x="155" y="62" width="31" height="31" fill="#FFB683"/>
<rect x="124" y="62" width="31" height="31" fill="#FFB683"/>
<rect x="93" y="62" width="31" height="31" fill="#FFB683"/>
<rect x="62" y="62" width="31" height="31" fill="#FFB683"/>
<rect x="31" y="62" width="31" height="31" fill="#FFB683"/>
<rect x="310" y="62" width="31" height="31" fill="#FFB683"/>
<rect x="279" y="62" width="31" height="31" fill="#FFB683"/>
<rect x="248" y="62" width="31" height="31" fill="#FFB683"/>
<rect x="217" y="62" width="31" height="31" fill="#FFB683"/>
</svg>
