<svg width="248" height="248" viewBox="0 0 248 248" fill="none" xmlns="http://www.w3.org/2000/svg">
<rect x="124" y="217" width="31" height="31" fill="#FFE2CD"/>
<rect x="93" y="217" width="31" height="31" fill="#FFE2CD"/>
<rect x="62" y="217" width="31" height="31" fill="#FFE2CD"/>
<rect x="155" y="217" width="31" height="31" fill="#FFE2CD"/>
<rect x="124" y="186" width="31" height="31" fill="#FFE2CD"/>
<rect x="93" y="186" width="31" height="31" fill="#FFE2CD"/>
<rect x="62" y="186" width="31" height="31" fill="#FFE2CD"/>
<rect x="31" y="186" width="31" height="31" fill="#FFE2CD"/>
<rect x="186" y="186" width="31" height="31" fill="#FFE2CD"/>
<rect x="155" y="186" width="31" height="31" fill="#FFE2CD"/>
<rect x="124" y="155" width="31" height="31" fill="#FFE2CD"/>
<rect x="93" y="155" width="31" height="31" fill="#FFE2CD"/>
<rect x="62" y="155" width="31" height="31" fill="#FFE2CD"/>
<rect x="31" y="155" width="31" height="31" fill="#FFE2CD"/>
<rect y="155" width="31" height="31" fill="#FFE2CD"/>
<rect x="217" y="155" width="31" height="31" fill="#FFE2CD"/>
<rect x="186" y="155" width="31" height="31" fill="#FFE2CD"/>
<rect x="155" y="155" width="31" height="31" fill="#FFE2CD"/>
<rect x="124" y="124" width="31" height="31" fill="#FFE2CD"/>
<rect x="93" y="124" width="31" height="31" fill="#FFE2CD"/>
<rect x="62" y="124" width="31" height="31" fill="#FFE2CD"/>
<rect x="31" y="124" width="31" height="31" fill="#FFE2CD"/>
<rect y="124" width="31" height="31" fill="#FFE2CD"/>
<rect x="217" y="124" width="31" height="31" fill="#FFE2CD"/>
<rect x="186" y="124" width="31" height="31" fill="#FFE2CD"/>
<rect x="155" y="124" width="31" height="31" fill="#FFE2CD"/>
<rect x="124" y="93" width="31" height="31" fill="#FFE2CD"/>
<rect x="93" y="93" width="31" height="31" fill="#FFE2CD"/>
<rect x="62" y="93" width="31" height="31" fill="#FFE2CD"/>
<rect x="31" y="93" width="31" height="31" fill="#FFE2CD"/>
<rect y="93" width="31" height="31" fill="#FFE2CD"/>
<rect x="217" y="93" width="31" height="31" fill="#FFE2CD"/>
<rect x="186" y="93" width="31" height="31" fill="#FFE2CD"/>
<rect x="155" y="93" width="31" height="31" fill="#FFE2CD"/>
<rect x="124" y="62" width="31" height="31" fill="#FFE2CD"/>
<rect x="93" y="62" width="31" height="31" fill="#FFE2CD"/>
<rect x="62" y="62" width="31" height="31" fill="#FFE2CD"/>
<rect x="31" y="62" width="31" height="31" fill="#FFE2CD"/>
<rect y="62" width="31" height="31" fill="#FFE2CD"/>
<rect x="217" y="62" width="31" height="31" fill="#FFE2CD"/>
<rect x="186" y="62" width="31" height="31" fill="#FFE2CD"/>
<rect x="155" y="62" width="31" height="31" fill="#FFE2CD"/>
<rect x="124" y="31" width="31" height="31" fill="#FFE2CD"/>
<rect x="93" y="31" width="31" height="31" fill="#FFE2CD"/>
<rect x="62" y="31" width="31" height="31" fill="#FFE2CD"/>
<rect x="31" y="31" width="31" height="31" fill="#FFE2CD"/>
<rect x="186" y="31" width="31" height="31" fill="#FFE2CD"/>
<rect x="155" y="31" width="31" height="31" fill="#FFE2CD"/>
<rect x="124" width="31" height="31" fill="#FFE2CD"/>
<rect x="93" width="31" height="31" fill="#FFE2CD"/>
<rect x="62" width="31" height="31" fill="#FFE2CD"/>
<rect x="155" width="31" height="31" fill="#FFE2CD"/>
</svg>
