<svg width="160" height="130" viewBox="0 0 160 130" fill="none" xmlns="http://www.w3.org/2000/svg">
<path d="M44.2891 7.22266H59.7178V14.9346H99.751V7.22266H115.312V0H152.951V14.9346H160V122.9H96.293V126.817H92.3027V130H63.8408V122.9H0V14.9346H7.04883V0H44.2891V7.22266ZM40.9443 53.3701H32.8389V61.21H25V85.7266H28.4541V97.5518H72.5029V93.9648H88.6426V98.748H128.174V90.1113H135.216V61.21H128.174V53.3701H120.335V45H40.9443V53.3701ZM57.2227 68.915H65.0625V77.4883H57.2227V85.7266H48.5166V77.4883H40.9434V68.915H48.5166V61.209H57.2227V68.915ZM113.159 68.915H120.334V77.4883H113.159V85.7266H104.188V77.4883H96.6143V68.915H104.188V61.209H113.159V68.915ZM104.555 69.2822V77.2549H112.793V69.2822H104.555Z" fill="#D9D9D9"/>
</svg>
