<svg width="130" height="130" viewBox="0 0 130 130" fill="none" xmlns="http://www.w3.org/2000/svg">
<path d="M0 89.5798V130H28.4034V89.5798H0Z" fill="#D9D9D9"/>
<path d="M33.8655 89.5798V130H62.2688V89.5798H33.8655Z" fill="#D9D9D9"/>
<path d="M67.7312 89.5798V130H96.1346V89.5798H67.7312Z" fill="#D9D9D9"/>
<path d="M0 0V38.2353H28.4034V0H0Z" fill="#D9D9D9"/>
<path d="M16.3865 43.6975V84.1177H45.8823V43.6975H16.3865Z" fill="#D9D9D9"/>
<path d="M16.3865 43.6975V84.1177H45.8823V43.6975H16.3865Z" fill="#D9D9D9"/>
<path d="M33.8655 0V38.2353H62.2688V0H33.8655Z" fill="#D9D9D9"/>
<path d="M50.2522 43.6975V84.1177H79.748V43.6975H50.2522Z" fill="#D9D9D9"/>
<path d="M67.7312 0V38.2353H96.1346V0H67.7312Z" fill="#D9D9D9"/>
<path d="M101.597 89.5798V130H130V89.5798H101.597Z" fill="#D9D9D9"/>
<path d="M84.1177 43.6975V84.1177H113.613V43.6975H84.1177Z" fill="#D9D9D9"/>
<path d="M101.597 0V38.2353H130V0H101.597Z" fill="#D9D9D9"/>
</svg>
