<svg width="217" height="130" viewBox="0 0 217 130" fill="none" xmlns="http://www.w3.org/2000/svg">
<path d="M186.18 82.4622V67.3866H201.59V36.8487H186.18V52.6975H170V21H217V67.3866H201.59V82.4622H186.18Z" fill="#D9D9D9"/>
<path d="M186.18 113V98.6975H201.59V113H186.18Z" fill="#D9D9D9"/>
<path d="M44.8276 51.4447H0V24.6608H44.8276H58.3574V31.8467H65.8558V38.5427H73.3542V45.0753H79.0596V51.4447L111.824 84.2713H116.389V70.2261H129.592V76.7588H135.95V84.2713H142.307V90.804H148.991V97.3367H156V104.523H148.991V110.729H142.307V117.261H135.95V124.121H129.592V130H116.389V110.729H103.837L58.3574 65.1633H52.326V58.304H44.8276V51.4447Z" fill="white"/>
<path d="M44.8276 78.5553H0V105.339H44.8276H58.3574V98.1533H65.8558V91.4573H73.3542V84.9247H79.0596V78.5553L111.824 45.7287H116.389V59.7739H129.592V53.2412H135.95V45.7287H142.307V39.196H148.991V32.6633H156V25.4774H148.991V19.2714H142.307V12.7387H135.95V5.87942H129.592V2.28882e-05H116.389V19.2714H103.837L58.3574 64.8367H52.326V71.696H44.8276V78.5553Z" fill="white"/>
</svg>
